<?xml version="1.0" encoding="utf-8"?>
<!-- Generator: Adobe Illustrator 14.0.0, SVG Export Plug-In . SVG Version: 6.00 Build 43363)  -->
<!DOCTYPE svg PUBLIC "-//W3C//DTD SVG 1.1//EN" "http://www.w3.org/Graphics/SVG/1.1/DTD/svg11.dtd">
<svg version="1.1" id="图层_1" xmlns="http://www.w3.org/2000/svg" xmlns:xlink="http://www.w3.org/1999/xlink" x="0px" y="0px"
	 width="48px" height="48px" viewBox="0 0 48 48" enable-background="new 0 0 48 48" xml:space="preserve">
<path fill="#B0B0B0" d="M3.494,24c0-0.587,0.476-1.063,1.063-1.063h38.886c0.588,0,1.063,0.476,1.063,1.063l0,0
	c0,0.587-0.475,1.062-1.063,1.062H4.557C3.97,25.063,3.494,24.587,3.494,24L3.494,24z"/>
<g>
	<g>
		<g>
			<path fill="#B0B0B0" d="M3.806,23.249c0.415-0.414,1.088-0.414,1.502,0l17.054,17.053c0.415,0.415,0.415,1.087,0,1.503l0,0
				c-0.415,0.414-1.088,0.414-1.503,0L3.806,24.751C3.391,24.336,3.391,23.665,3.806,23.249L3.806,23.249z"/>
		</g>
		<g>
			<path fill="#B0B0B0" d="M22.361,6.196c0.415,0.415,0.415,1.087,0,1.502L5.308,24.751c-0.414,0.415-1.087,0.415-1.502,0l0,0
				c-0.415-0.415-0.415-1.087,0-1.503L20.858,6.196C21.273,5.781,21.946,5.781,22.361,6.196L22.361,6.196z"/>
		</g>
	</g>
</g>
</svg>
