<?xml version="1.0" encoding="utf-8"?>
<!-- Generator: Adobe Illustrator 18.1.0, SVG Export Plug-In . SVG Version: 6.00 Build 0)  -->
<svg version="1.1" id="图层_1" xmlns="http://www.w3.org/2000/svg" xmlns:xlink="http://www.w3.org/1999/xlink" x="0px" y="0px"
	 width="32px" height="32px" viewBox="0 0 32 32" enable-background="new 0 0 32 32" xml:space="preserve">
<style type="text/css">
<![CDATA[
	.strokeColor{fill:#CED3E2;}
]]>
</style>

<g>
	<g>
		<path class="strokeColor" d="M16,32C7.2,32,0,24.8,0,16S7.2,0,16,0s16,7.2,16,16S24.8,32,16,32z M16,4C9.4,4,4,9.4,4,16
			c0,6.6,5.4,12,12,12c6.6,0,12-5.4,12-12C28,9.4,22.6,4,16,4z"/>
	</g>
	<path fill-rule="evenodd" clip-rule="evenodd" class="strokeColor" d="M13.9,21.5L13.9,21.5L9,16.2l2.6-2.7l2.8,3l6-6.5l1.6,1.8V12h0.2
		l0.8,0.8L14.4,22L13.9,21.5z"/>
</g>
</svg>
