<?xml version="1.0" encoding="utf-8"?>
<!-- Generator: Adobe Illustrator 15.0.0, SVG Export Plug-In . SVG Version: 6.00 Build 0)  -->
<!DOCTYPE svg PUBLIC "-//W3C//DTD SVG 1.1//EN" "http://www.w3.org/Graphics/SVG/1.1/DTD/svg11.dtd">
<svg version="1.1" id="图层_1" xmlns="http://www.w3.org/2000/svg" xmlns:xlink="http://www.w3.org/1999/xlink" x="0px" y="0px"
	 width="62px" height="62px" viewBox="0 0 62 62" enable-background="new 0 0 62 62" xml:space="preserve">
<style type="text/css">
<![CDATA[
	.strokeColor{fill:#62C1EE;}
]]>
</style>
<g>
	<path class="strokeColor" d="M31.406,1.002c-16.55,0-29.966,13.417-29.966,29.966s13.416,29.967,29.966,29.967
		s29.966-13.417,29.966-29.967S47.956,1.002,31.406,1.002z M31.406,58.436c-15.169,0-27.466-12.298-27.466-27.467
		S16.237,3.502,31.406,3.502S58.872,15.8,58.872,30.969S46.575,58.436,31.406,58.436z"/>
	<polygon class="strokeColor" points="32.781,17.344 30.031,17.344 30.031,29.594 17.781,29.594 17.781,32.344 30.031,32.344 
		30.031,44.594 32.781,44.594 32.781,32.344 45.031,32.344 45.031,29.594 32.781,29.594 	"/>
</g>
</svg>
