<?xml version="1.0" encoding="utf-8"?>
<!-- Generator: Adobe Illustrator 18.1.0, SVG Export Plug-In . SVG Version: 6.00 Build 0)  -->
<svg version="1.1" id="图层_1" xmlns="http://www.w3.org/2000/svg" xmlns:xlink="http://www.w3.org/1999/xlink" x="0px" y="0px"
	 width="32px" height="32px" viewBox="0 0 32 32" enable-background="new 0 0 32 32" xml:space="preserve">
<style type="text/css">
<![CDATA[
	.strokeColor{fill:#CED3E2;}
]]>
</style>

<path fill-rule="evenodd" clip-rule="evenodd" class="strokeColor" d="M30,10v20c0,1.1-0.9,2-2,2H4c-1.1,0-2-0.9-2-2V10H0V8
	c0-1.1,0.9-2,2-2h2h2h4V2c0-1.1,0.9-2,2-2h8c1.1,0,2,0.9,2,2v4h4h2h2c1.1,0,2,0.9,2,2v2H30z M18,4h-4v2h4V4z M26,10H6v18h20V10z
	 M14,24h-4V14h4V24z M22,24h-4V14h4V24z"/>
</svg>
