<?xml version="1.0" encoding="utf-8"?>
<!-- Generator: Adobe Illustrator 16.0.0, SVG Export Plug-In . SVG Version: 6.00 Build 0)  -->
<!DOCTYPE svg PUBLIC "-//W3C//DTD SVG 1.1//EN" "http://www.w3.org/Graphics/SVG/1.1/DTD/svg11.dtd">
<svg version="1.1" id="图层_1" xmlns="http://www.w3.org/2000/svg" xmlns:xlink="http://www.w3.org/1999/xlink" x="0px" y="0px"
	 width="42px" height="38px" viewBox="0 0 42 38" enable-background="new 0 0 42 38" xml:space="preserve">
<g>
	<g>
		<path fill-rule="evenodd" clip-rule="evenodd" fill="#DBDBDB" d="M40.431,17.607H4.92L19.212,3.308
			c0.542-0.542,0.542-1.422,0-1.965c-0.542-0.542-1.422-0.542-1.964,0L0.588,18.011c-0.045,0.045-0.064,0.104-0.102,0.153
			c-0.031,0.042-0.06,0.085-0.086,0.13c-0.075,0.125-0.127,0.253-0.159,0.392c-0.005,0.023-0.009,0.046-0.013,0.069
			c-0.028,0.158-0.028,0.312-0.001,0.47c0.005,0.032,0.011,0.063,0.018,0.094c0.03,0.121,0.074,0.233,0.136,0.344
			c0.038,0.069,0.081,0.133,0.129,0.194c0.03,0.038,0.043,0.083,0.079,0.119c0.007,0.007,0.016,0.009,0.023,0.016L17.27,36.657
			c0.542,0.543,1.422,0.543,1.964,0c0.542-0.542,0.542-1.423,0-1.965l-14.3-14.307h35.497c0.767,0,1.389-0.622,1.389-1.389
			S41.197,17.607,40.431,17.607z"/>
	</g>
</g>
</svg>
