<?xml version="1.0" encoding="utf-8"?>
<!-- Generator: Adobe Illustrator 16.0.0, SVG Export Plug-In . SVG Version: 6.00 Build 0)  -->
<!DOCTYPE svg PUBLIC "-//W3C//DTD SVG 1.1//EN" "http://www.w3.org/Graphics/SVG/1.1/DTD/svg11.dtd">
<svg version="1.1" id="图层_1" xmlns="http://www.w3.org/2000/svg" xmlns:xlink="http://www.w3.org/1999/xlink" x="0px" y="0px"
	 width="50px" height="50px" viewBox="0 0 50 50" enable-background="new 0 0 50 50" xml:space="preserve">
<g>
	<g>
		<path fill="#C0C0C0" d="M45,2c1.654,0,3,1.346,3,3v40c0,1.654-1.346,3-3,3H5c-1.654,0-3-1.346-3-3V5c0-1.654,1.346-3,3-3H45 M45,0
			H5C2.239,0,0,2.239,0,5v40c0,2.762,2.239,5,5,5h40c2.762,0,5-2.238,5-5V5C50,2.239,47.762,0,45,0L45,0z"/>
	</g>
	<g>
		<g>
			<polygon fill-rule="evenodd" clip-rule="evenodd" fill="#C0C0C0" points="41,23 27,23 27,9 23,9 23,23 9,23 9,27 23,27 23,41 
				27,41 27,27 41,27 			"/>
		</g>
	</g>
</g>
</svg>
