<?xml version="1.0" encoding="utf-8"?>
<!-- Generator: Adobe Illustrator 16.0.0, SVG Export Plug-In . SVG Version: 6.00 Build 0)  -->
<!DOCTYPE svg PUBLIC "-//W3C//DTD SVG 1.1//EN" "http://www.w3.org/Graphics/SVG/1.1/DTD/svg11.dtd">
<svg version="1.1" id="图层_1" xmlns="http://www.w3.org/2000/svg" xmlns:xlink="http://www.w3.org/1999/xlink" x="0px" y="0px"
	 width="38px" height="38px" viewBox="0 0 38 38" enable-background="new 0 0 38 38" xml:space="preserve">
<path fill="#B0B0B0" d="M33.954,18.495h-1.531c0.021,0.303,0.048,0.605,0.048,0.913c0,7.439-6.032,13.47-13.472,13.47
	s-13.47-6.03-13.47-13.47c0-7.44,6.031-13.472,13.47-13.472c4.565,0,8.591,2.275,11.027,5.748h-6.265v1.48h7.169h1.696h0.214V3.592
	h-1.479v7.356C28.661,7.004,24.14,4.408,19,4.408c-8.284,0-15,6.715-15,15c0,8.283,6.716,14.999,15,14.999s15-6.716,15-14.999
	C34,19.1,33.974,18.798,33.954,18.495z"/>
</svg>
