<?xml version="1.0" encoding="utf-8"?>
<!-- Generator: Adobe Illustrator 16.0.0, SVG Export Plug-In . SVG Version: 6.00 Build 0)  -->
<!DOCTYPE svg PUBLIC "-//W3C//DTD SVG 1.1//EN" "http://www.w3.org/Graphics/SVG/1.1/DTD/svg11.dtd">
<svg version="1.1" id="图层_1" xmlns="http://www.w3.org/2000/svg" xmlns:xlink="http://www.w3.org/1999/xlink" x="0px" y="0px"
	 width="38px" height="38px" viewBox="0 0 38 38" enable-background="new 0 0 38 38" xml:space="preserve">
<g>
	<path fill="#B0B0B0" d="M16.154,4.948c6.02,0,10.917,4.897,10.917,10.916c0,6.021-4.897,10.921-10.917,10.921
		c-6.021,0-10.918-4.899-10.918-10.921C5.235,9.846,10.134,4.948,16.154,4.948 M16.154,2.711C8.889,2.711,3,8.601,3,15.865
		c0,7.268,5.889,13.158,13.154,13.158s13.155-5.89,13.155-13.158C29.307,8.601,23.419,2.711,16.154,2.711L16.154,2.711z"/>
	<path fill="#B0B0B0" d="M32.655,35.274c-0.489-0.059-0.96-0.289-1.315-0.686l-8.001-7.616c-0.771-0.864-0.696-2.188,0.168-2.96
		c0.862-0.771,2.188-0.696,2.958,0.168l8.001,7.616c0.772,0.862,0.697,2.188-0.165,2.959C33.834,35.172,33.232,35.343,32.655,35.274
		L32.655,35.274z"/>
</g>
</svg>
